PathFileType  4	(X/Y/Z) C:\Users\antoi\Documents\MyRepositories\mobilecap\ResultsAnalysis
DataRate	CameraRate	NumFrames	NumMarkers	Units	OrigDataRate	OrigDataStartFrame	OrigNumFrames
100.0	100.0	4	51	mm	100.0	133	151
Frame#	Time	r_knee			r_shank_antsup			r_ankle			r_calc			r_5meta			r_toe			L_knee			L_shank_antsup			L_ankle			L_calc			L_5meta			L_toe			r_sh2			r_sh3			r_sh4			L_sh2			L_sh3			r_thigh1			r_thigh2			r_thigh3			r_thigh4			r_thigh5			L_thigh1			L_thigh2			L_thigh3			L_thigh4			r.ASIS			r.PSIS			L.ASIS			L.PSIS			C7			R_Shoulder			L_Shoulder			R_Sternum			L_Sternum			R_humerus			R_elbow_med			R_elbow_lat			R_forearm			R_wrist_radius			R_wrist_ulna			L_humerus			L_elbow_med			L_elbow_lat			L_forearm			L_wrist_radius			L_wrist_ulna			R_HJC			L_HJC			R_HJC_reg			L_HJC_reg			
		X1	Y1	Z1	X2	Y2	Z2	X3	Y3	Z3	X4	Y4	Z4	X5	Y5	Z5	X6	Y6	Z6	X7	Y7	Z7	X8	Y8	Z8	X9	Y9	Z9	X10	Y10	Z10	X11	Y11	Z11	X12	Y12	Z12	X13	Y13	Z13	X14	Y14	Z14	X15	Y15	Z15	X16	Y16	Z16	X17	Y17	Z17	X18	Y18	Z18	X19	Y19	Z19	X20	Y20	Z20	X21	Y21	Z21	X22	Y22	Z22	X23	Y23	Z23	X24	Y24	Z24	X25	Y25	Z25	X26	Y26	Z26	X27	Y27	Z27	X28	Y28	Z28	X29	Y29	Z29	X30	Y30	Z30	X31	Y31	Z31	X32	Y32	Z32	X33	Y33	Z33	X34	Y34	Z34	X35	Y35	Z35	X36	Y36	Z36	X37	Y37	Z37	X38	Y38	Z38	X39	Y39	Z39	X40	Y40	Z40	X41	Y41	Z41	X42	Y42	Z42	X43	Y43	Z43	X44	Y44	Z44	X45	Y45	Z45	X46	Y46	Z46	X47	Y47	Z47	X48	Y48	Z48	X49	Y49	Z49	X50	Y50	Z50	X51	Y51	Z51	

133	1.32000000	1525.72804	600.89737	-66.95554	1563.88375	453.59798	-86.58283	1515.70392	92.21152	-108.93850	1458.50387	68.55878	-172.61512	1655.42387	41.57739	-86.53916	1692.93560	75.10186	-136.62428	1254.90666	577.40883	-320.03356	1187.01678	381.79696	-279.34029	944.54732	184.08909	-246.35125	881.61827	192.38659	-178.46249	1020.98238	38.85822	-262.73160	1071.68662	54.27045	-208.10579	1567.82306	342.01129	-100.43895	1507.08874	443.98044	-36.86264	1507.97522	331.14564	-42.02930	1132.11944	423.67191	-333.04855	1057.27208	339.14677	-303.72217	1471.70544	882.62014	-9.63694	1522.49793	784.54361	-29.19772	1474.27432	735.15032	-18.66659	1369.73462	839.48430	-26.07669	1419.14099	731.05908	-35.21806	1376.52635	858.37254	-345.91744	1354.35652	726.42974	-339.29568	1268.09949	880.50346	-351.12522	1245.88731	746.51509	-345.60992	1438.18638	1152.55405	-44.56043	1246.92896	1177.01504	-123.36028	1424.13507	1138.80938	-322.23103	1244.34736	1178.59167	-216.87443	1317.46091	1672.88657	-171.56382	1368.50387	1613.40001	1.71164	1378.88286	1637.33637	-346.83989	1446.94359	1572.98073	-141.35797	1451.52664	1575.80191	-199.60442	1310.87722	1346.06151	62.32297	1210.70090	1247.47855	13.21957	1216.17108	1266.83444	84.03126	1301.87869	1067.78560	112.72427	1334.62303	977.36287	110.32930	1301.42907	975.16242	131.68005	1373.98568	1342.85878	-411.03535	1279.58874	1268.92812	-369.52955	1304.50629	1266.53618	-442.70838	1392.09811	1078.89488	-463.05488	1421.67728	1003.54607	-453.99307	1398.85992	1005.65433	-479.34997	1360.36595	1054.66929	-75.60621	1343.18817	1050.30486	-272.29023	1367.66211	1056.98838	-83.93218	1362.59499	1060.08502	-267.55449	
134	1.33000000	1536.26173	600.97728	-67.28386	1571.97813	452.80704	-87.11626	1516.27470	92.55518	-109.17649	1458.82569	68.79188	-172.65126	1655.74753	41.40125	-86.61458	1693.58520	74.25888	-136.82254	1276.52953	576.37761	-323.48216	1204.59479	382.60867	-282.55574	956.20531	192.88667	-248.83960	894.25174	205.64453	-181.42420	1023.60290	42.59740	-263.06584	1074.82532	55.58317	-208.58869	1573.39971	341.00375	-101.07684	1515.34692	444.24715	-37.07335	1513.92258	331.41446	-42.32196	1150.75685	426.00155	-336.14788	1073.50206	343.92446	-306.71203	1483.13351	882.91882	-8.91904	1533.59270	784.65209	-28.42837	1485.04311	735.49919	-18.51090	1381.26121	840.15553	-26.17773	1429.99274	731.63103	-35.12260	1392.15427	859.46157	-347.11956	1372.94971	727.00737	-342.05371	1283.64523	879.36891	-351.10609	1264.05859	745.04903	-347.23556	1450.66431	1153.97144	-44.16468	1259.12606	1177.96473	-122.72744	1435.65271	1140.28182	-321.87416	1256.18551	1179.49444	-216.38437	1329.45531	1674.02283	-169.81770	1381.00367	1614.11976	3.06029	1390.73125	1639.17614	-345.27668	1458.96834	1574.02281	-140.16511	1463.42175	1576.94978	-198.39072	1323.80310	1346.64582	63.24858	1223.50894	1248.14057	14.25362	1229.17219	1267.40037	85.05116	1315.03928	1068.29080	113.12933	1347.00830	977.40521	110.28241	1314.63287	975.58272	131.91180	1384.96451	1344.88356	-409.98210	1290.47357	1271.38734	-368.26284	1315.00280	1268.96833	-441.51760	1401.06040	1080.77326	-462.85918	1429.89565	1004.84992	-454.27160	1407.23777	1007.47675	-479.58470	1372.90410	1055.90589	-75.20115	1355.25782	1051.51024	-271.84175	1380.25319	1058.30789	-83.25268	1374.48944	1061.30743	-266.91157	
135	1.34000000	1545.99750	600.83281	-67.57169	1579.36900	451.84570	-87.58906	1516.79388	92.88354	-109.50448	1459.11609	68.97578	-172.78470	1655.97742	41.30460	-86.66616	1694.15879	73.33607	-136.98623	1298.88343	575.44526	-327.03724	1222.98932	383.69193	-285.74937	969.03463	202.09697	-251.42326	908.41249	219.42687	-184.64972	1026.92139	47.36349	-263.63152	1078.63874	57.65126	-209.24753	1578.52362	339.91235	-101.65135	1522.71323	444.28042	-37.47525	1519.05761	331.48746	-42.91418	1170.39569	428.49532	-339.39512	1090.74762	348.84495	-309.83900	1494.02068	882.75838	-8.03230	1543.89024	784.16253	-27.45672	1494.81000	735.38892	-18.39007	1392.63991	840.52406	-26.92673	1439.83893	732.01923	-35.32593	1408.16174	860.69581	-348.34934	1392.05543	727.76387	-344.81640	1299.53218	878.16641	-351.27209	1282.81113	743.56275	-349.12274	1463.16943	1155.20126	-43.80733	1271.28839	1178.87871	-121.92656	1446.89100	1141.79604	-321.54571	1267.86301	1180.41659	-215.69480	1341.24987	1675.12300	-168.09333	1393.41842	1614.86291	4.37934	1402.39221	1640.95330	-343.73644	1470.86468	1575.06134	-139.03005	1475.18168	1578.12668	-197.22227	1336.63827	1347.28762	64.23635	1236.12225	1248.99656	15.34702	1242.09373	1268.05670	86.18243	1328.25605	1068.91994	113.57971	1359.32404	977.45623	110.22216	1327.99038	976.12158	132.18775	1395.69576	1346.88602	-409.04119	1301.10190	1273.84815	-367.17706	1325.27601	1271.39563	-440.48272	1410.00535	1082.74349	-462.72276	1438.20574	1006.30396	-454.57070	1415.68874	1009.38357	-479.87286	1385.39453	1057.01508	-74.83154	1367.06622	1052.74840	-271.40921	1392.80416	1059.53266	-82.57325	1386.09585	1062.54448	-266.25659	
136	1.35000000	1554.95779	600.49148	-67.77687	1586.10270	450.74729	-87.93130	1517.29872	93.19210	-109.87858	1459.39956	69.15579	-172.96057	1656.15079	41.20548	-86.66160	1694.71080	72.23539	-137.07690	1321.77387	574.70741	-330.60381	1242.07761	385.08093	-288.92738	983.02992	211.53525	-254.08136	924.06406	233.49691	-188.08837	1031.07612	53.10173	-264.44597	1083.25838	60.47643	-210.15882	1583.26954	338.77517	-102.09190	1529.24634	444.10982	-37.97515	1523.47528	331.38935	-43.68704	1190.80176	431.19344	-342.69540	1108.85739	353.91610	-313.03507	1504.48965	882.28577	-7.10969	1553.54691	783.24849	-26.41595	1503.80134	734.96674	-18.27556	1404.12585	840.56581	-28.23046	1448.91182	732.31924	-35.71261	1424.48251	862.07607	-349.61976	1411.53821	728.72683	-347.53435	1315.67293	876.97818	-351.64451	1302.02693	742.12244	-351.21980	1475.69658	1156.18322	-43.55295	1283.39641	1179.74136	-120.97709	1457.86874	1143.28469	-321.29289	1279.39646	1181.30172	-214.80841	1352.83873	1676.16660	-166.39126	1405.73226	1615.57762	5.66851	1413.81040	1642.61143	-342.22911	1482.61264	1576.04963	-137.97182	1486.78658	1579.30348	-196.11530	1349.35922	1347.93326	65.29548	1248.51196	1249.99745	16.51321	1254.91843	1268.74064	87.44352	1341.50896	1069.61657	114.06147	1371.77091	977.60419	110.16771	1341.47703	976.72315	132.50057	1406.15702	1348.79632	-408.23885	1311.46437	1276.20506	-366.29635	1335.34231	1273.71788	-439.62446	1418.96189	1084.70643	-462.65487	1446.64504	1007.83780	-454.87959	1424.20994	1011.27573	-480.18893	1397.83023	1057.94898	-74.52750	1378.59720	1053.96398	-271.01986	1405.24697	1060.67270	-81.93870	1397.41620	1063.72648	-265.62678	
